<svg width="16" height="23" viewBox="0 0 16 23" fill="none" xmlns="http://www.w3.org/2000/svg">
<path id="Vector" d="M8 0C5.87904 0.0028261 3.84566 0.955708 2.34592 2.64962C0.846168 4.34353 0.00251067 6.64016 8.51118e-06 9.03571C-0.00253177 10.9934 0.56363 12.8979 1.61164 14.4571C1.61164 14.4571 1.82982 14.7816 1.86546 14.8284L8 23L14.1374 14.8243C14.1694 14.7808 14.3884 14.4571 14.3884 14.4571L14.3891 14.4547C15.4366 12.8961 16.0025 10.9925 16 9.03571C15.9975 6.64016 15.1538 4.34353 13.6541 2.64962C12.1543 0.955708 10.121 0.0028261 8 0ZM8 12.3214C7.42464 12.3214 6.86219 12.1287 6.3838 11.7677C5.9054 11.4066 5.53254 10.8935 5.31235 10.2931C5.09217 9.69272 5.03456 9.03207 5.14681 8.3947C5.25906 7.75734 5.53612 7.17188 5.94296 6.71236C6.34981 6.25285 6.86816 5.93991 7.43247 5.81313C7.99677 5.68635 8.58169 5.75142 9.11326 6.00011C9.64483 6.2488 10.0992 6.66994 10.4188 7.21027C10.7385 7.7506 10.9091 8.38586 10.9091 9.03571C10.9081 9.90681 10.6013 10.7419 10.056 11.3579C9.51062 11.9738 8.77124 12.3203 8 12.3214Z" fill="white"/>
</svg>
