<svg width="9" height="18" viewBox="0 0 9 18" fill="none" xmlns="http://www.w3.org/2000/svg">
<path id="Vector" d="M3.26404 10.4509H2.73454L6.43379 15.4958C6.87625 16.1039 6.54984 17.1015 5.91154 17.1015C5.7157 17.1015 5.52711 16.997 5.38929 16.807L1.01548 10.8404C0.82689 10.5934 0.725342 10.2514 0.725342 9.90936C0.725342 9.15879 1.18956 8.55074 1.76258 8.55074H3.26404C4.54064 8.55074 5.59964 7.31563 5.77373 5.70049H0.725342C0.326404 5.70049 0 5.27296 0 4.75041C0 4.22787 0.326404 3.80033 0.725342 3.80033H5.55612C5.14993 2.67923 4.27952 1.90016 3.26404 1.90016H0.725342C0.326404 1.90016 0 1.47263 0 0.950082C0 0.427537 0.326404 0 0.725342 0H7.97877C8.37771 0 8.70411 0.427537 8.70411 0.950082C8.70411 1.47263 8.37771 1.90016 7.97877 1.90016H6.33949C6.68766 2.45121 6.94878 3.09727 7.1011 3.80033H7.97877C8.37771 3.80033 8.70411 4.22787 8.70411 4.75041C8.70411 5.27296 8.37771 5.70049 7.97877 5.70049H7.23892C7.05033 8.36072 5.33852 10.4509 3.26404 10.4509Z" fill="#58932B"/>
</svg>
