<svg width="21" height="22" viewBox="0 0 21 22" fill="none" xmlns="http://www.w3.org/2000/svg">
<path id="Vector" d="M8.02095 4.36401e-08C6.96766 -0.000112417 5.92467 0.217133 4.95152 0.63933C3.97838 1.06153 3.09415 1.68041 2.34933 2.46063C1.60451 3.24086 1.01367 4.16714 0.610574 5.18659C0.207474 6.20605 3.61899e-08 7.2987 4.16601e-08 8.40216C-0.000107318 9.50569 0.207287 10.5984 0.610339 11.618C1.01339 12.6375 1.60421 13.5639 2.34904 14.3442C3.09388 15.1245 3.97814 15.7435 4.95134 16.1658C5.92453 16.588 6.96759 16.8053 8.02095 16.8052C9.89274 16.8052 11.6117 16.1107 12.9767 14.9855L13.6919 15.7348C13.5451 16.0337 13.4931 16.374 13.5435 16.706C13.5939 17.038 13.7441 17.3446 13.9723 17.581L17.7273 21.5414C18.3101 22.1529 19.264 22.1529 19.8476 21.5414L20.5628 20.7922C20.8428 20.497 21 20.0977 21 19.6815C21 19.2654 20.8428 18.8661 20.5628 18.5709L16.7824 14.637C16.5552 14.3996 16.2608 14.2453 15.9432 14.1972C15.6255 14.1491 15.3015 14.2096 15.0193 14.3698L14.3041 13.6205C15.2403 12.3829 15.8246 10.8939 15.99 9.32426C16.1555 7.75465 15.8953 6.16797 15.2394 4.74615C14.5836 3.32433 13.5585 2.12493 12.2817 1.28548C11.005 0.446029 9.5283 0.000507999 8.02095 4.36401e-08ZM8.02095 1.55164C9.75521 1.55164 11.4184 2.27339 12.6447 3.55811C13.871 4.84283 14.56 6.58529 14.56 8.40216C14.56 10.219 13.871 11.9615 12.6447 13.2462C11.4184 14.5309 9.75521 15.2527 8.02095 15.2527C6.28668 15.2527 4.62346 14.5309 3.39715 13.2462C2.17084 11.9615 1.48191 10.219 1.48191 8.40216C1.48191 6.58529 2.17084 4.84283 3.39715 3.55811C4.62346 2.27339 6.28668 1.55164 8.02095 1.55164ZM3.88255 6.23482C3.44659 6.9746 3.2167 7.82732 3.21884 8.69673C3.21787 9.31202 3.33284 9.92146 3.55714 10.4901C3.78145 11.0588 4.11069 11.5754 4.52599 12.0105C4.94128 12.4456 5.43446 12.7905 5.97725 13.0255C6.52005 13.2605 7.10178 13.3809 7.68909 13.3799C8.61238 13.3779 9.51283 13.079 10.2687 12.5236C10.065 12.5434 9.86034 12.5519 9.6557 12.5493C8.89709 12.5513 8.14556 12.3963 7.44431 12.0931C6.74306 11.7899 6.10589 11.3446 5.56943 10.7827C5.03297 10.2207 4.60778 9.55328 4.31829 8.81866C4.0288 8.08405 3.88072 7.29675 3.88255 6.502C3.88255 6.41294 3.87847 6.32388 3.88255 6.23482Z" fill="#F8F8F8"/>
</svg>
